# xmcd CD database file
#
# Track frame offsets:
#	150
#	18335
#	36138
#	52290
#	67385
#	83495
#	98654
#	114927
#	129545
#	144922
#	161418
#	178814
#	196422
#	214304
#	232908
#	248084
#	266633
#	284506
#	300958
#	318041
#
# Disc length: 4441 seconds
#
# Revision: 0
# Processed by: cddbd v1.5.2PL0 Copyright (c) Steve Scherf et al.
# Submitted via: CDex 1.70beta2
#
DISCID=15115714
DTITLE=Various Artist - NU MUSIC TRAXX VOL. 316
DYEAR=2006
DGENRE=Country
TTITLE0=BEYONCE Feat. JAY Z - DEJA VU
TTITLE1=PARIS HILTON - STARS ARE BLIND
TTITLE2=BO BICE - U MAKE ME BETTER
TTITLE3=JOHN MAYER - WAITING ON THE WORLD TO CHANGE
TTITLE4=JACKSOUL - ONESONG
TTITLE5=BRANDON PARIS BAND - REWIND AND START AGAIN
TTITLE6=EAMON - (HOW COULD YOU) BRING HIM HOME
TTITLE7=SY'RAI Feat. ROSETTE - ALL BY MYSELF
TTITLE8=BIANCA - WOMEN 101 (ROCKSTAR RADIO REMIX)
TTITLE9=NE YO - SEXY LOVE
TTITLE10=CHINGY Feat. TYRESE - PULLIN' ME BACK
TTITLE11=CAROLYN DAWN JOHNSON - CRY BABY
TTITLE12=KEITH ANDERSON - EVERYTIME I HEAR YOUR NAME
TTITLE13=AARON PRITCHETT - HOLD MY BEER
TTITLE14=BUCKCHERRY - CRAZY BITCH
TTITLE15=SNOW PATROL - CHASING CARS
TTITLE16=NICKELBACK - FAR AWAY
TTITLE17=CHANTAL KREVIAZUK - ALL I CAN DO
TTITLE18=KAYLE Feat. CRAIG SMART - GOOD THING
TTITLE19=SMASH MOUTH - STORY OF MY LIFE
EXTD=YEAR: 2006
EXTT0=
EXTT1=
EXTT2=
EXTT3=
EXTT4=
EXTT5=
EXTT6=
EXTT7=
EXTT8=
EXTT9=
EXTT10=
EXTT11=
EXTT12=
EXTT13=
EXTT14=
EXTT15=
EXTT16=
EXTT17=
EXTT18=
EXTT19=
PLAYORDER=
